<?xml version="1.0" encoding="UTF-8"?><svg xmlns="http://www.w3.org/2000/svg" xmlns:xlink="http://www.w3.org/1999/xlink" height="258.0" preserveAspectRatio="xMidYMid meet" version="1.0" viewBox="83.6 83.6 258.0 258.0" width="258.0" zoomAndPan="magnify"><g><g id="change1_1"><path d="M 293.769531 212.144531 L 212.664062 293.253906 L 131.554688 212.144531 L 212.664062 131.039062 L 293.769531 212.144531" fill="#fab946"/></g><g id="change1_2"><path d="M 287.171875 185.699219 L 294.148438 129.761719 L 238.945312 142.117188 Z M 287.171875 185.699219" fill="#fab946"/></g><g id="change1_3"><path d="M 245.101562 129.644531 L 212.570312 83.605469 L 180.101562 129.925781 L 212.375 116.273438 L 245.101562 129.644531" fill="#fab946"/></g><g id="change1_4"><path d="M 245.101562 295.554688 L 212.570312 341.59375 L 180.101562 295.273438 L 212.375 308.929688 L 245.101562 295.554688" fill="#fab946"/></g><g id="change1_5"><path d="M 129.644531 180.101562 L 83.605469 212.632812 L 129.925781 245.101562 L 116.273438 212.824219 L 129.644531 180.101562" fill="#fab946"/></g><g id="change1_6"><path d="M 295.554688 180.101562 L 341.59375 212.632812 L 295.273438 245.101562 L 308.929688 212.824219 L 295.554688 180.101562" fill="#fab946"/></g><g id="change1_7"><path d="M 138.144531 185.699219 L 129.03125 130.070312 L 184.667969 140.308594 Z M 138.144531 185.699219" fill="#fab946"/></g><g id="change1_8"><path d="M 285.765625 237.835938 L 297.6875 292.933594 L 241.605469 285.53125 Z M 285.765625 237.835938" fill="#fab946"/></g><g id="change1_9"><path d="M 142.09375 237.835938 L 131.324219 293.167969 L 187.238281 284.601562 Z M 142.09375 237.835938" fill="#fab946"/></g><g id="change2_1"><path d="M 212.664062 131.039062 L 212.539062 131.160156 L 212.539062 293.132812 L 212.664062 293.253906 L 293.769531 212.144531 L 212.664062 131.039062" fill="#f9a731"/></g></g></svg>